PathFileType	4	(X/Y/Z)	C:/Users/opensim2020/Desktop/walking_exp_matlab/subject01_walking15_straight_01.trc																																																																																																																															
DataRate	CameraRate	NumFrames	NumMarkers	Units	OrigDataRate	OrigDataStartFrame	OrigNumFrames																																																																																																																											
100	100	7	43	mm	100	668	125																																																																																																																											
Frame#	Time	LFHD			RFHD			LBHD			RBHD			C7			T10			CLAV			STRN			RBAK			LSHO			LUPA			LELB			LFRM			LWRA			LWRB			LFIN			RSHO			RUPA			RELB			RFRM			RWRA			RWRB			RFIN			LASI			RASI			LPSI			RPSI			LTHI			LKNE			LTIB			LANK			LHEE			LTOE			RTHI			RKNE			RTIB			RANK			RHEE			RTOE			*39			*40			*41			*42		
		X1	Y1	Z1	X2	Y2	Z2	X3	Y3	Z3	X4	Y4	Z4	X5	Y5	Z5	X6	Y6	Z6	X7	Y7	Z7	X8	Y8	Z8	X9	Y9	Z9	X10	Y10	Z10	X11	Y11	Z11	X12	Y12	Z12	X13	Y13	Z13	X14	Y14	Z14	X15	Y15	Z15	X16	Y16	Z16	X17	Y17	Z17	X18	Y18	Z18	X19	Y19	Z19	X20	Y20	Z20	X21	Y21	Z21	X22	Y22	Z22	X23	Y23	Z23	X24	Y24	Z24	X25	Y25	Z25	X26	Y26	Z26	X27	Y27	Z27	X28	Y28	Z28	X29	Y29	Z29	X30	Y30	Z30	X31	Y31	Z31	X32	Y32	Z32	X33	Y33	Z33	X34	Y34	Z34	X35	Y35	Z35	X36	Y36	Z36	X37	Y37	Z37	X38	Y38	Z38	X39	Y39	Z39	X40	Y40	Z40	X41	Y41	Z41	X42	Y42	Z42	X43	Y43	Z43
																																																																																																																																		
1	0	-904.66876	1653.92859	1326.68958	-886.27667	1665.07996	1438.65674	-1017.78961	1605.1969	1342.04578	-1001.32227	1615.50586	1460.90637	-1042.84705	1422.57886	1373.57898	-1108.5791	1133.97998	1377.60498	-903.04767	1345.23206	1398.11194	-877.36884	1186.51941	1399.28259	-1126.87488	1239.12708	1440.55273	-938.10754	1384.37036	1231.61255	-959.42773	1204.11475	1141.43896	-975.84406	1050.27283	1137.21765	-914.89063	948.63379	1128.56091	-819.25525	856.06201	1168.82507	-866.23224	836.01904	1138.19177	-801.61859	784.11932	1137.68298	-990.00488	1389.69189	1534.09375	-1101.88269	1208.42578	1619.20044	-1118.43225	1083.72168	1623.41125	-1113.78394	962.9635	1655.89246	-1051.88416	834.01849	1644.05444	-1097.86292	842.81018	1679.24426	-1073.76855	759.73322	1683.68201	-935.08429	921.70093	1291.1261	-955.14453	923.30902	1504.8866	-1122.59448	936.13715	1326.98206	-1133.05884	935.78833	1472.3634	-965.35333	579.89368	1263.67493	-980.93237	446.48969	1292.86084	-1053.21045	268.49731	1295.00317	-1114.30103	64.21416	1364.96094	-1167.11572	39.1635	1415.97021	-970.71588	28.99515	1373.40601	-918.83765	608.76398	1592.94861	-869.16119	458.00055	1586.3092	-995.79553	334.9245	1586.8667	-1117.06653	168.05717	1540.31946	-1170.95935	154.37163	1482.28809	-1028.43201	59.97588	1564.34924	-900.38501	1696.96204	1415.28687	1973.18921	1023.53448	-3101.80078	2012.58118	1022.14221	-3140.62915	NaN	NaN	NaN
2	0.01	-893.36615	1654.31921	1328.06042	-874.62598	1665.21216	1440.09167	-1006.51215	1605.8822	1343.52197	-989.85162	1615.91309	1462.40393	-1031.84448	1422.93091	1374.79456	-1097.54163	1134.39075	1379.1178	-891.97607	1345.75366	1399.19775	-866.1817	1187.05029	1400.33899	-1115.62537	1239.36951	1441.79016	-927.52972	1384.87659	1232.67407	-948.48907	1204.66785	1142.36194	-962.84174	1050.65955	1138.06396	-897.79712	950.87054	1130.69067	-798.22174	863.10413	1172.19006	-844.63544	840.60455	1142.11707	-777.42731	791.8634	1141.84656	-979.01508	1390.0542	1535.26379	-1091.64575	1209.04541	1620.08521	-1108.58667	1084.45764	1624.20825	-1105.89172	964.01733	1657.09363	-1045.97351	834.00885	1646.01282	-1092.03137	843.66571	1680.78003	-1069.61963	760.04761	1685.41223	-925.16431	921.44452	1292.04333	-943.47314	924.29315	1506.09351	-1112.12683	936.55157	1329.48865	-1121.61902	936.36145	1475.1947	-960.34564	579.88995	1264.92676	-978.63336	446.52264	1292.93555	-1052.44666	269.20721	1295.40735	-1114.01245	64.98785	1365.49426	-1166.59521	40.12788	1416.83081	-970.59186	29.03575	1373.12842	-901.43396	611.74921	1593.57507	-849.45068	461.5939	1586.09827	-970.37738	332.36963	1588.5249	-1082.19312	158.3725	1544.40527	-1136.04871	140.70749	1486.88452	-986.35956	56.72594	1568.26965	-888.79871	1697.21252	1416.71448	1973.15979	1023.39667	-3101.96655	2012.58044	1022.14423	-3140.62622	NaN	NaN	NaN
3	0.02	-882.00696	1654.5614	1329.44275	-863.2005	1665.30273	1441.41589	-995.25244	1606.30811	1345.04871	-978.3288	1616.12537	1463.89417	-1020.75616	1423.1228	1376.01563	-1086.38574	1134.57959	1380.59656	-880.8504	1346.04004	1400.36694	-855.18384	1187.3313	1401.39685	-1104.40076	1239.49707	1443.02246	-916.71906	1385.28491	1233.81677	-937.36835	1205.01367	1143.3468	-949.64539	1050.46619	1138.77942	-880.76306	953.16431	1132.76611	-777.54034	870.47626	1175.45313	-822.7663	845.62616	1145.84106	-753.53119	799.94861	1145.88989	-967.92688	1390.25806	1536.46265	-1081.24768	1209.4231	1620.96411	-1098.68616	1085.20642	1625.1897	-1097.7417	964.93829	1658.40247	-1039.78748	833.9223	1648.10815	-1086.01306	844.48322	1682.42529	-1065.23669	760.31287	1687.26331	-914.78699	921.38135	1293.36304	-931.7171	925.11084	1507.38635	-1101.71265	936.85156	1332.08044	-1109.90906	936.61157	1477.89795	-955.04669	579.78815	1266.30591	-976.39233	446.54092	1293.69519	-1051.59778	270.06006	1295.86694	-1113.71838	65.67334	1366.09009	-1166.09412	41.34835	1417.74902	-970.24359	28.83709	1373.32507	-884.85608	614.41864	1594.34705	-830.74927	464.70496	1585.98743	-945.07361	329.1127	1590.24048	-1046.62024	147.86423	1547.98035	-1099.9552	126.75472	1491.2041	-944.03992	53.50688	1571.53381	-877.24554	1697.34058	1418.1604	1973.06775	1023.96918	-3102.03345	2012.52747	1022.09998	-3140.74658	NaN	NaN	NaN
4	0.03	-870.7619	1654.71509	1330.8175	-851.71027	1665.28674	1442.75232	-983.94928	1606.50952	1346.59045	-966.82611	1616.17798	1465.36938	-1009.67297	1423.2478	1377.23926	-1075.27563	1134.71375	1382.15015	-869.58789	1346.16528	1401.53113	-843.89221	1187.42798	1402.54834	-1093.06287	1239.47156	1444.24097	-905.77478	1385.40686	1234.95056	-926.04736	1205.17078	1144.44312	-936.45117	1050.46594	1139.46021	-863.68518	955.49792	1134.77576	-757.24719	877.93219	1178.60095	-801.0722	850.72162	1149.06995	-730.0274	808.17645	1149.79504	-956.71899	1390.27441	1537.65552	-1070.72668	1209.63867	1621.84973	-1088.59644	1085.65979	1626.1676	-1089.44885	965.66541	1659.71863	-1033.36279	833.77527	1650.23889	-1079.69958	845.15149	1684.04285	-1060.41052	760.47394	1689.24377	-904.85022	920.83307	1294.30371	-919.93158	925.69128	1508.76709	-1091.24915	936.8678	1334.71362	-1098.29407	936.42664	1480.59827	-949.69757	579.76544	1267.60925	-973.75464	446.74658	1294.04102	-1050.58679	270.94174	1296.40271	-1113.39404	66.50858	1366.7793	-1165.80017	43.14508	1418.58215	-970.06763	28.70277	1373.38086	-869.00684	616.24542	1595.05396	-812.98724	467.33029	1585.97852	-919.66565	325.08838	1591.96362	-1010.49207	137.63777	1551.35901	-1062.18005	112.04304	1495.30042	-901.25623	51.00159	1574.66248	-865.78137	1697.31116	1419.55151	1973.16187	1023.51099	-3102.0437	2012.46643	1021.99951	-3140.71704	NaN	NaN	NaN
5	0.04	-859.44299	1654.5896	1332.22485	-840.22516	1665.10791	1444.11426	-972.67053	1606.47742	1348.11682	-955.30902	1616.04712	1466.91382	-998.3949	1423.1792	1378.5061	-1064.00867	1134.7063	1383.76318	-858.2157	1346.15173	1402.79163	-832.53064	1187.25928	1403.77576	-1081.70813	1239.34705	1445.48743	-894.62573	1385.39392	1236.18457	-914.54742	1205.17273	1145.50586	-922.98785	1050.25854	1140.20508	-846.68024	957.93719	1136.66992	-737.29492	885.39911	1181.67053	-779.88794	856.06696	1152.15149	-707.17072	816.63354	1153.21033	-945.42236	1390.12244	1538.88684	-1060.05933	1209.67712	1622.83142	-1078.38574	1085.97632	1627.22632	-1080.97437	966.34125	1661.10938	-1026.68713	833.56268	1652.46436	-1073.09521	845.66675	1685.81946	-1055.2605	760.76703	1691.27588	-894.4455	920.29315	1295.54395	-907.99292	926.02661	1510.15979	-1080.75134	936.67163	1337.36353	-1086.57263	936.15668	1483.19995	-944.35535	579.79486	1268.80286	-971.09229	447.10452	1294.54565	-1049.6394	271.94894	1296.96301	-1112.88489	67.49445	1367.37756	-1165.29456	44.77645	1419.8313	-969.94025	28.51369	1373.45056	-854.11157	617.52325	1595.54333	-796.20703	469.39517	1586.01111	-894.12622	320.54645	1593.74524	-973.32556	127.41136	1554.52051	-1024.15417	98.43343	1499.02637	-857.91302	49.14376	1577.22461	-854.17084	1697.40857	1421.13257	1973.17297	1023.9566	-3102.00171	2012.56299	1022.08789	-3140.57617	NaN	NaN	NaN
6	0.05	-848.11786	1654.4635	1333.63696	-828.72784	1664.76514	1445.51208	-961.33588	1606.32874	1349.69019	-943.78845	1615.724	1468.46094	-986.9162	1422.8363	1379.80701	-1052.76941	1134.56677	1385.44153	-846.77881	1345.92151	1404.03687	-821.24994	1186.94482	1405.00952	-1070.28882	1239.11328	1446.77307	-883.31653	1385.18347	1237.42908	-902.74207	1204.98425	1146.64514	-909.46887	1049.97668	1140.89478	-829.82111	960.4101	1138.51062	-717.81482	892.9325	1184.56787	-758.85944	861.61908	1155.17822	-684.63269	825.29932	1156.69312	-934.15076	1389.85815	1540.19434	-1049.28223	1209.58826	1623.77686	-1067.99304	1086.19104	1628.43555	-1072.24841	966.84528	1662.57202	-1019.76288	833.29724	1654.69019	-1066.27148	846.0528	1687.65198	-1049.67725	760.88861	1693.47095	-883.69849	919.89502	1296.97253	-895.98584	926.10559	1511.54272	-1070.24133	936.26581	1340.09802	-1074.87659	935.70111	1485.87134	-939.07208	579.84863	1269.89294	-968.36591	447.50366	1295.0354	-1048.49878	273.07257	1297.65869	-1112.57544	68.47366	1368.15833	-1164.66443	46.28712	1421.00867	-969.7854	28.4587	1373.39917	-839.71204	618.50647	1596.479	-780.39746	470.63071	1586.16675	-868.68329	315.52896	1595.64551	-935.35895	117.46754	1557.49084	-984.22894	84.91435	1502.75012	-814.12115	48.34127	1579.22766	-842.85242	1696.92212	1422.38257	1972.97559	1023.93188	-3102.10962	2012.47168	1022.17963	-3140.71387	NaN	NaN	NaN
7	0.06	-836.73004	1654.14624	1335.11035	-817.22577	1664.32007	1446.93091	-950.01044	1605.9812	1351.31946	-932.19916	1615.22144	1470.00793	-975.55322	1422.56506	1381.07642	-1041.3761	1134.19958	1387.16565	-835.19354	1345.55652	1405.36487	-809.80121	1186.42896	1406.27014	-1058.76489	1238.70801	1448.04419	-871.95148	1384.8324	1238.71216	-890.73694	1204.76099	1147.81836	-895.96552	1049.64868	1141.62952	-812.98578	962.89679	1140.2738	-698.78491	900.40552	1187.28284	-738.50854	867.01965	1158.24121	-662.7807	833.93433	1159.91248	-922.6106	1389.40918	1541.4021	-1038.35486	1209.29285	1624.82874	-1057.40503	1086.16589	1629.6554	-1063.22302	967.18256	1664.08716	-1012.51221	832.89874	1656.97632	-1059.15759	846.44495	1689.44299	-1043.66748	761.07556	1695.72717	-873.64832	918.87939	1297.69287	-883.80273	925.93842	1513.02173	-1059.59802	935.67572	1342.90503	-1063.10828	934.9436	1488.50732	-933.8775	579.8902	1270.82104	-965.57269	447.96716	1295.47424	-1047.45105	274.36124	1298.35315	-1112.06226	70.03938	1369.07458	-1163.96021	47.86184	1422.15161	-969.77338	28.25402	1373.19714	-825.86249	619.01288	1597.71838	-765.63757	471.12827	1586.41809	-843.33069	310.25595	1597.58142	-896.58362	108.25648	1560.33484	-943.88409	72.46439	1506.07703	-770.66309	48.07678	1581.01721	-831.39459	1696.52747	1423.86877	1973.20215	1023.54297	-3101.90332	2012.57129	1022.16949	-3140.7771	NaN	NaN	NaN
